<?xml version="1.0" encoding="utf-8"?>
<!-- Generator: Adobe Illustrator 27.2.0, SVG Export Plug-In . SVG Version: 6.00 Build 0)  -->
<svg version="1.1" id="Capa_1" xmlns="http://www.w3.org/2000/svg" xmlns:xlink="http://www.w3.org/1999/xlink" x="0px" y="0px"
	 viewBox="0 0 595.28 841.89" style="enable-background:new 0 0 595.28 841.89;" xml:space="preserve">
<style type="text/css">
	.st0{fill:url(#SVGID_1_);stroke:#000000;stroke-miterlimit:10;}
	.st1{fill:url(#SVGID_00000013872212706561917410000007656127897453070267_);stroke:#000000;stroke-miterlimit:10;}
	.st2{fill:url(#SVGID_00000169537448311396519080000003938356987269190298_);stroke:#000000;stroke-miterlimit:10;}
	.st3{fill:#FFFFFF;stroke:#000000;stroke-miterlimit:10;}
	.st4{fill:url(#SVGID_00000090284235653888283630000008866827903437641628_);stroke:#000000;stroke-miterlimit:10;}
	.st5{fill:url(#SVGID_00000137811286705461577010000005233022388357714354_);stroke:#000000;stroke-miterlimit:10;}
	.st6{fill:url(#SVGID_00000098940046139007020090000001907252701124583319_);stroke:#000000;stroke-miterlimit:10;}
	.st7{fill:url(#SVGID_00000052803037669520594080000013327509205679706533_);stroke:#000000;stroke-miterlimit:10;}
	.st8{fill:url(#SVGID_00000167374245827637298030000000155733345069152393_);stroke:#000000;stroke-miterlimit:10;}
	.st9{fill:url(#SVGID_00000137846333884325066510000015946646074062205337_);stroke:#000000;stroke-miterlimit:10;}
</style>
<linearGradient id="SVGID_1_" gradientUnits="userSpaceOnUse" x1="226.8819" y1="643.4655" x2="406.9753" y2="331.5345">
	<stop  offset="0" style="stop-color:#2581C4"/>
	<stop  offset="1" style="stop-color:#2581C4;stop-opacity:0"/>
</linearGradient>
<path class="st0" d="M410.33,638.57h-186.8c-10.55,0-19.1-8.55-19.1-19.1V355.53c0-10.55,8.55-19.1,19.1-19.1h186.8
	c10.55,0,19.1,8.55,19.1,19.1v263.94C429.43,630.02,420.88,638.57,410.33,638.57z"/>
<radialGradient id="SVGID_00000003077953806686253430000009861578827202487970_" cx="318.7344" cy="392.7452" r="41.9285" gradientTransform="matrix(0.8874 0 0 0.8516 35.925 50.774)" gradientUnits="userSpaceOnUse">
	<stop  offset="0.5112" style="stop-color:#000000;stop-opacity:0"/>
	<stop  offset="0.915" style="stop-color:#000000;stop-opacity:0.6512"/>
	<stop  offset="1" style="stop-color:#000000;stop-opacity:0.95"/>
</radialGradient>
<path style="fill:url(#SVGID_00000003077953806686253430000009861578827202487970_);stroke:#000000;stroke-miterlimit:10;" d="
	M355.99,385.24c0,19.72-16.66,35.71-37.21,35.71c-14.97,0-27.88-8.49-33.78-20.72c-2.2-4.56-3.42-9.63-3.42-14.98
	c0-19.72,16.66-35.71,37.21-35.71S355.99,365.52,355.99,385.24z"/>
<radialGradient id="SVGID_00000089542006867586793120000006302730207231686835_" cx="320.1182" cy="503.7994" r="73.9035" gradientTransform="matrix(0.7862 0 0 1 67.0965 0)" gradientUnits="userSpaceOnUse">
	<stop  offset="0.5744" style="stop-color:#000000;stop-opacity:0"/>
	<stop  offset="1" style="stop-color:#000000;stop-opacity:0.6512"/>
	<stop  offset="1" style="stop-color:#000000;stop-opacity:0.95"/>
</radialGradient>
<path style="fill:url(#SVGID_00000089542006867586793120000006302730207231686835_);stroke:#000000;stroke-miterlimit:10;" d="
	M358.53,452.93l14.62,36.55c3.68,9.2,3.68,19.46,0,28.65l-14.62,36.55c-5.86,14.64-20.04,24.24-35.81,24.24h-7.88
	c-15.77,0-29.95-9.6-35.81-24.24l-14.62-36.55c-3.68-9.2-3.68-19.46,0-28.65l14.62-36.55c5.86-14.64,20.04-24.24,35.81-24.24h7.88
	C338.49,428.68,352.67,438.28,358.53,452.93z"/>
<path class="st3" d="M355.04,618.89h-76.23c-10.55,0-19.1-8.55-19.1-19.1v0c0-10.55,8.55-19.1,19.1-19.1h76.23
	c10.55,0,19.1,8.55,19.1,19.1v0C374.14,610.33,365.59,618.89,355.04,618.89z"/>
<linearGradient id="SVGID_00000003817844073164543650000015143233976393095315_" gradientUnits="userSpaceOnUse" x1="265.343" y1="599.7847" x2="278.5203" y2="599.7847">
	<stop  offset="0" style="stop-color:#FFFFFF"/>
	<stop  offset="1" style="stop-color:#000000"/>
</linearGradient>
<polygon style="fill:url(#SVGID_00000003817844073164543650000015143233976393095315_);stroke:#000000;stroke-miterlimit:10;" points="
	276.16,606.51 272.05,604.25 268.02,606.66 268.7,601.7 265.34,598.26 269.88,597.45 271.83,592.91 273.95,597.37 278.52,598.01 
	275.29,601.57 "/>
<linearGradient id="SVGID_00000147183172479764765200000013040233234843738244_" gradientUnits="userSpaceOnUse" x1="334.0715" y1="599.7847" x2="347.2488" y2="599.7847">
	<stop  offset="0" style="stop-color:#FFFFFF"/>
	<stop  offset="1" style="stop-color:#000000"/>
</linearGradient>
<polygon style="fill:url(#SVGID_00000147183172479764765200000013040233234843738244_);stroke:#000000;stroke-miterlimit:10;" points="
	344.89,606.51 340.78,604.25 336.75,606.66 337.43,601.7 334.07,598.26 338.61,597.45 340.56,592.91 342.68,597.37 347.25,598.01 
	344.02,601.57 "/>
<linearGradient id="SVGID_00000134240267127363065850000000916060329024996747_" gradientUnits="userSpaceOnUse" x1="312.1543" y1="599.7847" x2="325.3316" y2="599.7847">
	<stop  offset="0" style="stop-color:#FFFFFF"/>
	<stop  offset="1" style="stop-color:#000000"/>
</linearGradient>
<polygon style="fill:url(#SVGID_00000134240267127363065850000000916060329024996747_);stroke:#000000;stroke-miterlimit:10;" points="
	322.98,606.51 318.86,604.25 314.83,606.66 315.52,601.7 312.15,598.26 316.69,597.45 318.64,592.91 320.77,597.37 325.33,598.01 
	322.1,601.57 "/>
<linearGradient id="SVGID_00000047742341302554513990000016715350744060935558_" gradientUnits="userSpaceOnUse" x1="287.8915" y1="599.7847" x2="301.0688" y2="599.7847">
	<stop  offset="0" style="stop-color:#FFFFFF"/>
	<stop  offset="1" style="stop-color:#000000"/>
</linearGradient>
<polygon style="fill:url(#SVGID_00000047742341302554513990000016715350744060935558_);stroke:#000000;stroke-miterlimit:10;" points="
	298.71,606.51 294.6,604.25 290.57,606.66 291.25,601.7 287.89,598.26 292.43,597.45 294.38,592.91 296.5,597.37 301.07,598.01 
	297.84,601.57 "/>
<linearGradient id="SVGID_00000028282684414751171710000006851612414263411903_" gradientUnits="userSpaceOnUse" x1="355.9887" y1="599.7847" x2="369.166" y2="599.7847">
	<stop  offset="0" style="stop-color:#FFFFFF"/>
	<stop  offset="1" style="stop-color:#000000"/>
</linearGradient>
<polygon style="fill:url(#SVGID_00000028282684414751171710000006851612414263411903_);stroke:#000000;stroke-miterlimit:10;" points="
	366.81,606.51 362.69,604.25 358.67,606.66 359.35,601.7 355.99,598.26 360.53,597.45 362.48,592.91 364.6,597.37 369.17,598.01 
	365.94,601.57 "/>
<radialGradient id="SVGID_00000036230851101253827550000007840367415926643093_" cx="318.8071" cy="465.3235" r="26.3523" gradientTransform="matrix(0.5571 0 0 1.2887 141.2532 -122.0752)" gradientUnits="userSpaceOnUse">
	<stop  offset="0.5744" style="stop-color:#000000;stop-opacity:0"/>
	<stop  offset="1" style="stop-color:#000000;stop-opacity:0.6512"/>
	<stop  offset="1" style="stop-color:#000000;stop-opacity:0.95"/>
</radialGradient>
<path style="fill:url(#SVGID_00000036230851101253827550000007840367415926643093_);stroke:#000000;stroke-miterlimit:10;" d="
	M318.54,524.79c-0.03-0.69-0.05-1.38-0.08-2.06c-3.39-92.21-3.39-92.21-3.39-92.21l7.58-0.17L318.54,524.79z"/>
</svg>
